<svg  id="my21-Civic-Prototype-White-Promobanner" xmlns="http://www.w3.org/2000/svg" viewBox="-80 0 694.7 230.2">
<style type="text/css">
	#my21-Civic-Prototype-White-Promobanner { fill: #fff; }
</style>
<path  d="M185.6,84.9c2.9-0.3,4-2.1,4-5V5.3c0-2.8-1.1-4.7-4-5c-6.5-0.3-13-0.3-19.4,0c-1.7,0.2-4,1.1-4,5v74.6
	c0,2.9,1.1,4.7,4,5C172.7,85.2,179.2,85.2,185.6,84.9z"></path>
<path d="M409,84.9c2.9-0.3,4-2.1,4-5V5.3c0-2.8-1.1-4.7-4-5c-6.5-0.3-13-0.3-19.5,0c-1.7,0.2-4,1.1-4,5v74.6
	c0,2.9,1.1,4.7,4,5C396.1,85.2,402.6,85.2,409,84.9z"></path>
<path d="M346.8,3.6c1.6-2.4,2.2-3,4.9-3c0.6,0,7.4,0,8.3,0.1c4.1,0.3,4.3,2.1,2.5,4.7L314.2,76c0,0-1.6,2.3-3.2,4.4
	c-2.1,3.1-5.6,4.9-9.4,5c-2.2,0.1-15.4,0.2-18.4,0.2l0,0c-2.8,0-5.5-0.1-7.2-0.2c-5.6-0.3-8.3-2.4-11.5-6.4
	c-0.3-0.3-1.2-1.5-2.3-3.1c-9.4-13.7-47.4-69.8-47.4-69.8c-1.7-2.6-0.7-5.6,2.9-5.8c2.4-0.1,17.9-0.1,20.8,0
	c6.3,0.2,6.3,0.3,9.1,4.1c0.3,0.5,31.5,46.8,41.1,60.7c0.7,1,1.4,1.9,1.8,2.6c0.6,0.8,1.3,1.4,2,2.1c1.1,1,2.6,1.5,4.1,1.3
	c1.6,0.1,3.1-0.3,4.4-1.2c1.5-1.3,2.8-2.8,3.8-4.5C314.3,51.9,346.4,4,346.8,3.6z"></path>
<path d="M126.2,11.7c2.3,0,4.2-0.3,4.3-3.4c0.1-1.3,0.1-3.1,0-4.3c-0.2-2.8-1.6-3.5-4.4-3.5H60.9c-3.5,0-10.8,0-18,0.5
	c-5.6,0.4-17.3,1.9-24.4,6.4C6.8,14.5-0.3,27.4,0,41.2c-0.1,13,4.1,26.5,15.5,34.9c8.5,6.3,24.7,9.1,38.3,9.1h78.7
	c2.9,0,4.2-0.7,4.4-3.5c0.1-1.3,0.1-4.2,0-5.4c-0.1-3.1-2-3.4-4.3-3.4h-5.8l0,0H75.5c-3.6,0-24-0.5-29.5-2.9
	c-10.7-4.7-16.7-13.3-16.7-28.7C29.3,29.8,33,21,42.6,16c5.8-3,20.4-4.4,34.6-4.4L126.2,11.7z"></path>
<path  d="M563.9,11.7c2.3,0,4.2-0.3,4.3-3.4c0.1-1.3,0.1-3.1,0-4.3c-0.2-2.8-1.5-3.5-4.4-3.5h-65.2c-3.5,0-10.8,0-18,0.5
	c-5.6,0.4-17.3,1.9-24.4,6.4c-11.8,7.1-18.9,20-18.6,33.8c-0.1,13,4,26.5,15.5,34.9c8.5,6.3,24.7,9.1,38.4,9.1h78.7
	c2.9,0,4.2-0.7,4.4-3.5c0.1-1.3,0.1-4.2,0-5.4c-0.2-3.1-2-3.4-4.3-3.4h-5.8l0,0h-51.4c-3.6,0-24-0.5-29.5-2.9
	C472.9,65.2,467,56.6,467,41.2c0-11.4,3.7-20.1,13.3-25.1c5.8-3,20.4-4.4,34.6-4.4L563.9,11.7z"></path>
<path  d="M79.3,134.2c10.2,0,12.8,0.2,12.8,4c-0.1,2.1-0.8,4.1-1.9,5.8c-2.1,3.3-5.4,4.2-11,4.2H61.9l-3.2,8.7h-9
	l8.3-22.6L79.3,134.2z M83.3,139.7c0-1.7-2.6-1.5-7.7-1.5H65.5l-2.1,6h8c1.3,0,2.6,0,4.1,0c3.2,0,6.9-0.3,7.7-3.4
	C83.2,140.5,83.3,140.1,83.3,139.7z"></path>
<path  d="M148,138.1c0,2.1-0.7,4.2-1.9,6c-1.6,2.6-5.4,3.7-10.8,3.9c1.8,0.1,3.5,1,4.6,2.5c0.9,1,5.4,6.4,5.4,6.4h-10.1
	c0,0-4.3-5.1-5.6-6.6c-1-1.4-2.7-2.2-4.5-2.1h-7.3l-3.2,8.7h-9l8.2-22.6h17.4c1.8,0,9.2-0.1,12.4,0.4C146.4,135,148,136.2,148,138.1
	z M139.2,139.7c0-1.2-1.5-1.5-4.3-1.5h-13.5l-2.1,6h11c2.9,0,8.2,0.2,8.9-3.8C139.2,140.2,139.2,140,139.2,139.7L139.2,139.7z"></path>
<path  d="M205.8,139.8c0,0.6-0.1,1.3-0.2,1.9c-0.7,3.5-1.9,6.9-3.7,10c-1.7,2.9-3.5,4.1-7.5,4.8
	c-4.4,0.6-8.9,0.9-13.3,0.8c-4.3,0.1-8.7-0.3-12.9-1.1c-3.3-0.7-4.9-2.3-4.9-4.9c0-0.6,0.1-1.2,0.2-1.7c0.8-3.8,2.2-7.4,4.1-10.7
	c1.7-2.8,3.2-3.6,7.2-4.2c4.6-0.6,9.3-0.8,14-0.8c4.1,0,8.1,0.3,12.1,1C204.1,135.5,205.8,137.2,205.8,139.8z M196.9,140.4
	c0-1.2-0.9-2.3-2.2-2.3c-2.4-0.4-4.8-0.6-7.2-0.5c-2.6-0.1-5.2,0.1-7.8,0.5c-2.2,0.3-3,0.9-3.9,2.3c-1.8,2.9-3.6,7.4-3.6,9.8
	c0,1.1,0.7,1.9,2.2,2.3c2.4,0.5,4.9,0.7,7.3,0.6c2.5,0,5.1-0.1,7.6-0.5c1.7-0.1,3.3-1.1,4.1-2.6c1.7-2.7,2.8-5.7,3.5-8.9
	C196.9,140.9,196.9,140.7,196.9,140.4L196.9,140.4z"></path>
<path  d="M261.8,134.3l-1.5,4H246l-6.8,18.6h-9.3l6.8-18.6h-15.2l1.5-4H261.8z"></path>
<path  d="M313.7,139.8c0,0.6-0.1,1.3-0.2,1.9c-0.6,3.5-1.9,6.9-3.7,10c-1.7,2.9-3.5,4.1-7.5,4.8
	c-4.4,0.6-8.9,0.9-13.3,0.8c-4.4,0.1-8.7-0.3-13-1.1c-3.3-0.7-4.9-2.3-4.9-4.9c0-0.6,0.1-1.2,0.2-1.7c0.8-3.8,2.2-7.4,4.1-10.7
	c1.7-2.8,3.2-3.6,7.2-4.2c4.6-0.6,9.3-0.8,14-0.8c4.1,0,8.1,0.3,12.1,1C312.1,135.5,313.7,137.2,313.7,139.8z M304.8,140.4
	c0-1.2-0.7-2-2.2-2.3c-2.4-0.4-4.8-0.6-7.2-0.5c-2.6-0.1-5.2,0.1-7.8,0.5c-2.2,0.3-3,0.9-3.9,2.3c-1.8,2.9-3.6,7.4-3.6,9.8
	c0,1.1,0.7,1.9,2.2,2.3c2.4,0.5,4.9,0.7,7.3,0.6c2.5,0,5.1-0.1,7.6-0.5c1.7-0.1,3.3-1.1,4.1-2.6c1.7-2.7,2.8-5.7,3.5-8.9
	C304.8,140.9,304.8,140.7,304.8,140.4z"></path>
<path  d="M369.7,134.3l-1.5,4h-14.3l-6.8,18.6h-9.3l6.8-18.6h-15.2l1.5-4H369.7z"></path>
<path  d="M395.9,156.9h-9.3l3-8.2l-10.5-14.4h9.6l7.3,9.9l13.9-9.9h9.3l-20.5,14.4L395.9,156.9z"></path>
<path  d="M457.9,134.2c10.2,0,12.8,0.2,12.8,4c-0.1,2.1-0.8,4.1-1.9,5.8c-2.1,3.3-5.5,4.2-11,4.2h-17.3l-3.2,8.7h-9
	l8.3-22.6L457.9,134.2z M461.9,139.7c0-1.7-2.6-1.5-7.7-1.5h-10.1l-2.1,6h8c1.3,0,2.5,0,4.1,0c3.2,0,6.9-0.3,7.7-3.4
	C461.8,140.5,461.9,140.1,461.9,139.7z"></path>
<path  d="M498.3,143.1h24.1l-1.5,4h-24.1l-2,5.5h25.6l-1.6,4.3h-34.5l8.2-22.6h33.4l-1.7,4H500L498.3,143.1z"></path>
</svg> 
